<?xml version="1.0" encoding="UTF-8" standalone="no"?>
<!DOCTYPE svg PUBLIC "-//W3C//DTD SVG 1.1//EN"
 "http://www.w3.org/Graphics/SVG/1.1/DTD/svg11.dtd">
<!-- Generated by graphviz version 2.40.1 (20161225.0304)
 -->
<!-- Title: controllers_diagram Pages: 1 -->
<svg width="480pt" height="487pt"
 viewBox="0.00 0.00 480.00 487.00" xmlns="http://www.w3.org/2000/svg" xmlns:xlink="http://www.w3.org/1999/xlink">
<g id="graph0" class="graph" transform="scale(1 1) rotate(0) translate(4 483)">
<title>controllers_diagram</title>
<polygon fill="transparent" stroke="transparent" points="-4,4 -4,-483 476,-483 476,4 -4,4"/>
<!-- _diagram_info -->
<g id="node1" class="node">
<title>_diagram_info</title>
<text text-anchor="start" x="8" y="-431.6" font-family="Times,serif" font-size="13.00" fill="#000000">Controllers diagram</text>
<text text-anchor="start" x="8" y="-417.6" font-family="Times,serif" font-size="13.00" fill="#000000">Date: Dec 03 2019 &#45; 05:58</text>
<text text-anchor="start" x="8" y="-403.6" font-family="Times,serif" font-size="13.00" fill="#000000">Migration version: 20191203055342</text>
<text text-anchor="start" x="8" y="-389.6" font-family="Times,serif" font-size="13.00" fill="#000000">Generated by RailRoady 1.5.3</text>
<text text-anchor="start" x="8" y="-375.6" font-family="Times,serif" font-size="13.00" fill="#000000">http://railroady.prestonlee.com</text>
</g>
<!-- CommentsController -->
<g id="node2" class="node">
<title>CommentsController</title>
<path fill="none" stroke="#000000" d="M92,-96.5C92,-96.5 200,-96.5 200,-96.5 206,-96.5 212,-102.5 212,-108.5 212,-108.5 212,-297.5 212,-297.5 212,-303.5 206,-309.5 200,-309.5 200,-309.5 92,-309.5 92,-309.5 86,-309.5 80,-303.5 80,-297.5 80,-297.5 80,-108.5 80,-108.5 80,-102.5 86,-96.5 92,-96.5"/>
<text text-anchor="middle" x="146" y="-294.3" font-family="Times,serif" font-size="14.00" fill="#000000">CommentsController</text>
<polyline fill="none" stroke="#000000" points="80,-286.5 212,-286.5 "/>
<text text-anchor="start" x="88" y="-271.3" font-family="Times,serif" font-size="14.00" fill="#000000">create</text>
<text text-anchor="start" x="88" y="-256.3" font-family="Times,serif" font-size="14.00" fill="#000000">destroy</text>
<text text-anchor="start" x="88" y="-241.3" font-family="Times,serif" font-size="14.00" fill="#000000">edit</text>
<text text-anchor="start" x="88" y="-226.3" font-family="Times,serif" font-size="14.00" fill="#000000">index</text>
<text text-anchor="start" x="88" y="-211.3" font-family="Times,serif" font-size="14.00" fill="#000000">new</text>
<text text-anchor="start" x="88" y="-196.3" font-family="Times,serif" font-size="14.00" fill="#000000">show</text>
<text text-anchor="start" x="88" y="-181.3" font-family="Times,serif" font-size="14.00" fill="#000000">update</text>
<polyline fill="none" stroke="#000000" points="80,-173.5 212,-173.5 "/>
<polyline fill="none" stroke="#000000" points="80,-149.5 212,-149.5 "/>
<text text-anchor="start" x="88" y="-134.3" font-family="Times,serif" font-size="14.00" fill="#000000">_layout</text>
<text text-anchor="start" x="88" y="-119.3" font-family="Times,serif" font-size="14.00" fill="#000000">comment_params</text>
<text text-anchor="start" x="88" y="-104.3" font-family="Times,serif" font-size="14.00" fill="#000000">set_comment</text>
</g>
<!-- ApplicationController -->
<g id="node3" class="node">
<title>ApplicationController</title>
<path fill="none" stroke="#000000" d="M348,-384.5C348,-384.5 460,-384.5 460,-384.5 466,-384.5 472,-390.5 472,-396.5 472,-396.5 472,-466.5 472,-466.5 472,-472.5 466,-478.5 460,-478.5 460,-478.5 348,-478.5 348,-478.5 342,-478.5 336,-472.5 336,-466.5 336,-466.5 336,-396.5 336,-396.5 336,-390.5 342,-384.5 348,-384.5"/>
<text text-anchor="middle" x="404" y="-463.3" font-family="Times,serif" font-size="14.00" fill="#000000">ApplicationController</text>
<polyline fill="none" stroke="#000000" points="336,-455.5 472,-455.5 "/>
<polyline fill="none" stroke="#000000" points="336,-431.5 472,-431.5 "/>
<polyline fill="none" stroke="#000000" points="336,-407.5 472,-407.5 "/>
<text text-anchor="start" x="344" y="-392.3" font-family="Times,serif" font-size="14.00" fill="#000000">_layout</text>
</g>
<!-- HomesController -->
<g id="node4" class="node">
<title>HomesController</title>
<path fill="none" stroke="#000000" d="M252,-128.5C252,-128.5 339,-128.5 339,-128.5 345,-128.5 351,-134.5 351,-140.5 351,-140.5 351,-344.5 351,-344.5 351,-350.5 345,-356.5 339,-356.5 339,-356.5 252,-356.5 252,-356.5 246,-356.5 240,-350.5 240,-344.5 240,-344.5 240,-140.5 240,-140.5 240,-134.5 246,-128.5 252,-128.5"/>
<text text-anchor="middle" x="295.5" y="-341.3" font-family="Times,serif" font-size="14.00" fill="#000000">HomesController</text>
<polyline fill="none" stroke="#000000" points="240,-333.5 351,-333.5 "/>
<text text-anchor="start" x="248" y="-318.3" font-family="Times,serif" font-size="14.00" fill="#000000">create</text>
<text text-anchor="start" x="248" y="-303.3" font-family="Times,serif" font-size="14.00" fill="#000000">destroy</text>
<text text-anchor="start" x="248" y="-288.3" font-family="Times,serif" font-size="14.00" fill="#000000">edit</text>
<text text-anchor="start" x="248" y="-273.3" font-family="Times,serif" font-size="14.00" fill="#000000">index</text>
<text text-anchor="start" x="248" y="-258.3" font-family="Times,serif" font-size="14.00" fill="#000000">new</text>
<text text-anchor="start" x="248" y="-243.3" font-family="Times,serif" font-size="14.00" fill="#000000">show</text>
<text text-anchor="start" x="248" y="-228.3" font-family="Times,serif" font-size="14.00" fill="#000000">update</text>
<text text-anchor="start" x="248" y="-213.3" font-family="Times,serif" font-size="14.00" fill="#000000">vote</text>
<polyline fill="none" stroke="#000000" points="240,-205.5 351,-205.5 "/>
<polyline fill="none" stroke="#000000" points="240,-181.5 351,-181.5 "/>
<text text-anchor="start" x="248" y="-166.3" font-family="Times,serif" font-size="14.00" fill="#000000">_layout</text>
<text text-anchor="start" x="248" y="-151.3" font-family="Times,serif" font-size="14.00" fill="#000000">home_params</text>
<text text-anchor="start" x="248" y="-136.3" font-family="Times,serif" font-size="14.00" fill="#000000">set_home</text>
</g>
<!-- AboutController -->
<g id="node5" class="node">
<title>AboutController</title>
<path fill="none" stroke="#000000" d="M252,-.5C252,-.5 334,-.5 334,-.5 340,-.5 346,-6.5 346,-12.5 346,-12.5 346,-82.5 346,-82.5 346,-88.5 340,-94.5 334,-94.5 334,-94.5 252,-94.5 252,-94.5 246,-94.5 240,-88.5 240,-82.5 240,-82.5 240,-12.5 240,-12.5 240,-6.5 246,-.5 252,-.5"/>
<text text-anchor="middle" x="293" y="-79.3" font-family="Times,serif" font-size="14.00" fill="#000000">AboutController</text>
<polyline fill="none" stroke="#000000" points="240,-71.5 346,-71.5 "/>
<polyline fill="none" stroke="#000000" points="240,-47.5 346,-47.5 "/>
<polyline fill="none" stroke="#000000" points="240,-23.5 346,-23.5 "/>
<text text-anchor="start" x="248" y="-8.3" font-family="Times,serif" font-size="14.00" fill="#000000">_layout</text>
</g>
</g>
</svg>
