<?xml version="1.0" encoding="UTF-8" standalone="no"?>
<!DOCTYPE svg PUBLIC "-//W3C//DTD SVG 1.1//EN"
 "http://www.w3.org/Graphics/SVG/1.1/DTD/svg11.dtd">
<!-- Generated by graphviz version 2.40.1 (20161225.0304)
 -->
<!-- Title: models_diagram Pages: 1 -->
<svg width="986pt" height="250pt"
 viewBox="0.00 0.00 985.50 250.00" xmlns="http://www.w3.org/2000/svg" xmlns:xlink="http://www.w3.org/1999/xlink">
<g id="graph0" class="graph" transform="scale(1 1) rotate(0) translate(4 246)">
<title>models_diagram</title>
<polygon fill="transparent" stroke="transparent" points="-4,4 -4,-246 981.5,-246 981.5,4 -4,4"/>
<!-- _diagram_info -->
<g id="node1" class="node">
<title>_diagram_info</title>
<text text-anchor="start" x="8" y="-145.6" font-family="Times,serif" font-size="13.00" fill="#000000">Models diagram</text>
<text text-anchor="start" x="8" y="-131.6" font-family="Times,serif" font-size="13.00" fill="#000000">Date: Dec 03 2019 &#45; 05:58</text>
<text text-anchor="start" x="8" y="-117.6" font-family="Times,serif" font-size="13.00" fill="#000000">Migration version: 20191203055342</text>
<text text-anchor="start" x="8" y="-103.6" font-family="Times,serif" font-size="13.00" fill="#000000">Generated by RailRoady 1.5.3</text>
<text text-anchor="start" x="8" y="-89.6" font-family="Times,serif" font-size="13.00" fill="#000000">http://railroady.prestonlee.com</text>
</g>
<!-- User -->
<g id="node2" class="node">
<title>User</title>
<path fill="none" stroke="#000000" d="M244,-45.5C244,-45.5 420,-45.5 420,-45.5 426,-45.5 432,-51.5 432,-57.5 432,-57.5 432,-184.5 432,-184.5 432,-190.5 426,-196.5 420,-196.5 420,-196.5 244,-196.5 244,-196.5 238,-196.5 232,-190.5 232,-184.5 232,-184.5 232,-57.5 232,-57.5 232,-51.5 238,-45.5 244,-45.5"/>
<text text-anchor="middle" x="332" y="-181.3" font-family="Times,serif" font-size="14.00" fill="#000000">User</text>
<polyline fill="none" stroke="#000000" points="232,-173.5 432,-173.5 "/>
<text text-anchor="start" x="240" y="-158.3" font-family="Times,serif" font-size="14.00" fill="#000000">id :integer</text>
<text text-anchor="start" x="240" y="-143.3" font-family="Times,serif" font-size="14.00" fill="#000000">email :varchar</text>
<text text-anchor="start" x="240" y="-128.3" font-family="Times,serif" font-size="14.00" fill="#000000">encrypted_password :varchar</text>
<text text-anchor="start" x="240" y="-113.3" font-family="Times,serif" font-size="14.00" fill="#000000">reset_password_token :varchar</text>
<text text-anchor="start" x="240" y="-98.3" font-family="Times,serif" font-size="14.00" fill="#000000">reset_password_sent_at :datetime</text>
<text text-anchor="start" x="240" y="-83.3" font-family="Times,serif" font-size="14.00" fill="#000000">remember_created_at :datetime</text>
<text text-anchor="start" x="240" y="-68.3" font-family="Times,serif" font-size="14.00" fill="#000000">created_at :datetime(6)</text>
<text text-anchor="start" x="240" y="-53.3" font-family="Times,serif" font-size="14.00" fill="#000000">updated_at :datetime(6)</text>
</g>
<!-- ApplicationRecord -->
<g id="node3" class="node">
<title>ApplicationRecord</title>
<ellipse fill="none" stroke="#000000" cx="527" cy="-121" rx="77.1866" ry="18"/>
<text text-anchor="middle" x="527" y="-117.3" font-family="Times,serif" font-size="14.00" fill="#000000">ApplicationRecord</text>
</g>
<!-- Comment -->
<g id="node4" class="node">
<title>Comment</title>
<path fill="none" stroke="#000000" d="M634,-53C634,-53 756,-53 756,-53 762,-53 768,-59 768,-65 768,-65 768,-177 768,-177 768,-183 762,-189 756,-189 756,-189 634,-189 634,-189 628,-189 622,-183 622,-177 622,-177 622,-65 622,-65 622,-59 628,-53 634,-53"/>
<text text-anchor="middle" x="695" y="-173.8" font-family="Times,serif" font-size="14.00" fill="#000000">Comment</text>
<polyline fill="none" stroke="#000000" points="622,-166 768,-166 "/>
<text text-anchor="start" x="630" y="-150.8" font-family="Times,serif" font-size="14.00" fill="#000000">id :integer</text>
<text text-anchor="start" x="630" y="-135.8" font-family="Times,serif" font-size="14.00" fill="#000000">user_name :varchar</text>
<text text-anchor="start" x="630" y="-120.8" font-family="Times,serif" font-size="14.00" fill="#000000">body :text</text>
<text text-anchor="start" x="630" y="-105.8" font-family="Times,serif" font-size="14.00" fill="#000000">home_id :integer</text>
<text text-anchor="start" x="630" y="-90.8" font-family="Times,serif" font-size="14.00" fill="#000000">created_at :datetime(6)</text>
<text text-anchor="start" x="630" y="-75.8" font-family="Times,serif" font-size="14.00" fill="#000000">updated_at :datetime(6)</text>
<text text-anchor="start" x="630" y="-60.8" font-family="Times,serif" font-size="14.00" fill="#000000">user_id :integer</text>
</g>
<!-- Home -->
<g id="node5" class="node">
<title>Home</title>
<path fill="none" stroke="#000000" d="M798.5,-.5C798.5,-.5 965.5,-.5 965.5,-.5 971.5,-.5 977.5,-6.5 977.5,-12.5 977.5,-12.5 977.5,-229.5 977.5,-229.5 977.5,-235.5 971.5,-241.5 965.5,-241.5 965.5,-241.5 798.5,-241.5 798.5,-241.5 792.5,-241.5 786.5,-235.5 786.5,-229.5 786.5,-229.5 786.5,-12.5 786.5,-12.5 786.5,-6.5 792.5,-.5 798.5,-.5"/>
<text text-anchor="middle" x="882" y="-226.3" font-family="Times,serif" font-size="14.00" fill="#000000">Home</text>
<polyline fill="none" stroke="#000000" points="786.5,-218.5 977.5,-218.5 "/>
<text text-anchor="start" x="794.5" y="-203.3" font-family="Times,serif" font-size="14.00" fill="#000000">id :integer</text>
<text text-anchor="start" x="794.5" y="-188.3" font-family="Times,serif" font-size="14.00" fill="#000000">imagem :varchar</text>
<text text-anchor="start" x="794.5" y="-173.3" font-family="Times,serif" font-size="14.00" fill="#000000">descricao :text</text>
<text text-anchor="start" x="794.5" y="-158.3" font-family="Times,serif" font-size="14.00" fill="#000000">nome :varchar</text>
<text text-anchor="start" x="794.5" y="-143.3" font-family="Times,serif" font-size="14.00" fill="#000000">created_at :datetime(6)</text>
<text text-anchor="start" x="794.5" y="-128.3" font-family="Times,serif" font-size="14.00" fill="#000000">updated_at :datetime(6)</text>
<text text-anchor="start" x="794.5" y="-113.3" font-family="Times,serif" font-size="14.00" fill="#000000">user_id :integer</text>
<text text-anchor="start" x="794.5" y="-98.3" font-family="Times,serif" font-size="14.00" fill="#000000">cached_votes_total :integer</text>
<text text-anchor="start" x="794.5" y="-83.3" font-family="Times,serif" font-size="14.00" fill="#000000">cached_votes_score :integer</text>
<text text-anchor="start" x="794.5" y="-68.3" font-family="Times,serif" font-size="14.00" fill="#000000">cached_votes_up :integer</text>
<text text-anchor="start" x="794.5" y="-53.3" font-family="Times,serif" font-size="14.00" fill="#000000">cached_votes_down :integer</text>
<text text-anchor="start" x="794.5" y="-38.3" font-family="Times,serif" font-size="14.00" fill="#000000">cached_weighted_score :integer</text>
<text text-anchor="start" x="794.5" y="-23.3" font-family="Times,serif" font-size="14.00" fill="#000000">cached_weighted_total :integer</text>
<text text-anchor="start" x="794.5" y="-8.3" font-family="Times,serif" font-size="14.00" fill="#000000">cached_weighted_average :float</text>
</g>
</g>
</svg>
